PathFileType	4	(X/Y/Z)	TVC_36_Cal_03_0_static_RCNL2025.trc
DataRate	CameraRate	NumFrames	NumMarkers	Units	OrigDataRate	OrigDataStartFrame	OrigNumFrames
100	100	10	27	mm	100	53	139
Frame#	Time	R_Shoulder			L_Shoulder			C7			J_Notch			R_Elbow			L_Elbow			R_Wrist			L_Wrist			R_Asis			L_Asis			R_Psis			L_Psis			Sacral			Thoracic			Sternum			R_Thigh_Lateral			R_Knee_Lateral			R_Shank_Lateral			R_Ankle_Lateral			R_Heel			R_Toe			L_Thigh_Lateral			L_Knee_Lateral			L_Shank_Lateral			L_Ankle_Lateral			L_Heel			L_Toe		
		X1	Y1	Z1	X2	Y2	Z2	X3	Y3	Z3	X4	Y4	Z4	X5	Y5	Z5	X6	Y6	Z6	X7	Y7	Z7	X8	Y8	Z8	X9	Y9	Z9	X10	Y10	Z10	X11	Y11	Z11	X12	Y12	Z12	X13	Y13	Z13	X14	Y14	Z14	X15	Y15	Z15	X16	Y16	Z16	X17	Y17	Z17	X18	Y18	Z18	X19	Y19	Z19	X20	Y20	Z20	X21	Y21	Z21	X22	Y22	Z22	X23	Y23	Z23	X24	Y24	Z24	X25	Y25	Z25	X26	Y26	Z26	X27	Y27	Z27
53	0.52000000	-237.185715	1389.381958	41.049980	-348.364838	1371.977539	-304.289215	-341.490936	1433.403320	-113.182884	-184.097168	1319.302002	-151.660889	-235.250504	1120.776611	177.073944	-311.909912	1074.668213	-415.111389	-199.788239	900.905426	135.295223	-205.710129	884.815887	-394.949371	-190.173660	899.216553	-25.086063	-283.788391	902.845032	-268.209900	-377.992188	932.539368	-39.688828	-409.212189	925.229797	-116.922256	-393.602188	928.884583	-78.305542	-376.961548	1153.922363	-90.478531	-148.572769	1167.980835	-174.292099	-238.590652	633.391174	52.891624	-316.781586	459.956543	-3.367353	-339.464600	260.256042	25.055904	-343.016113	69.168564	-56.545998	-391.486847	55.387112	-103.552254	-218.285385	40.285473	-96.622543	-337.691803	673.014038	-358.762390	-310.746521	466.776947	-316.773438	-373.401825	275.132477	-331.302490	-308.133728	70.139221	-316.669617	-314.528595	51.213211	-253.766769	-192.892029	44.852886	-377.847565
54	0.53000000	-237.456711	1389.545410	40.831318	-348.139252	1371.792725	-304.757263	-341.548920	1433.477661	-113.527596	-184.082382	1319.299072	-151.850250	-235.504211	1121.161377	176.954453	-311.636444	1074.537109	-415.332428	-199.623344	901.041748	135.220390	-205.634827	884.676178	-395.055939	-190.365738	899.241333	-25.113930	-283.600922	903.038574	-268.735138	-378.053131	932.550903	-39.868122	-409.178772	925.153687	-117.093552	-393.615952	928.852295	-78.480837	-377.005157	1154.043213	-90.625885	-148.538834	1167.981812	-174.299576	-238.685471	632.994446	52.783855	-316.790863	460.076691	-3.478849	-339.498108	260.346802	25.017643	-343.021637	69.174591	-56.525120	-391.551514	55.475269	-103.439346	-218.287628	40.256355	-96.648270	-337.367615	673.085876	-359.012939	-310.692474	466.893616	-316.846130	-373.361359	275.211456	-331.331726	-308.097748	70.070435	-316.736176	-314.480957	51.136063	-253.815796	-192.841019	44.953796	-377.815094
55	0.54000000	-237.663086	1389.614990	40.482948	-348.013397	1371.681030	-305.156586	-341.433350	1433.576416	-114.005348	-184.299271	1319.223267	-151.542358	-235.699051	1121.298706	176.781158	-311.603210	1074.287231	-415.483154	-199.581650	901.140778	135.151363	-205.570786	884.484344	-395.128189	-190.377304	899.232666	-25.349766	-283.522095	903.073364	-268.823639	-378.192535	932.560730	-40.043770	-409.233612	925.196594	-117.299026	-393.713074	928.878662	-78.671398	-377.191132	1154.188843	-90.698158	-148.491913	1167.958252	-174.420410	-238.778656	632.902344	52.715694	-316.848816	460.063354	-3.536326	-339.543762	260.351562	24.946583	-343.005920	69.217476	-56.542072	-391.448547	55.352058	-103.539124	-218.280487	40.249516	-96.650322	-337.177399	673.144287	-359.267365	-310.658173	466.818665	-316.920807	-373.326233	275.209320	-331.355896	-308.016693	70.152138	-316.785156	-314.495453	51.136456	-253.833908	-192.798645	44.986973	-377.791290
56	0.55000000	-237.899384	1389.758423	40.228962	-347.941101	1371.579712	-305.512115	-341.411560	1433.540894	-114.401527	-184.319748	1319.225830	-151.626938	-236.111252	1121.539307	176.553253	-311.558655	1074.136353	-415.731628	-199.765274	901.338104	134.829918	-205.624886	884.352356	-395.082443	-190.465164	899.233276	-25.494390	-283.614655	903.017334	-268.913849	-378.330780	932.539307	-40.210243	-409.299744	925.153259	-117.534363	-393.815262	928.846283	-78.872303	-376.928040	1153.998657	-91.370316	-148.499680	1167.973755	-174.618866	-238.852036	633.023132	52.626419	-316.889435	459.896332	-3.566956	-339.587769	260.373901	24.943090	-342.981110	69.237457	-56.551735	-391.515747	55.386303	-103.460022	-218.290787	40.305138	-96.651299	-337.257721	672.946472	-359.224213	-310.596802	466.862427	-317.000366	-373.308014	275.173767	-331.406830	-308.015167	70.145805	-316.785858	-314.482422	51.115932	-253.819412	-192.767227	45.029110	-377.884399
57	0.56000000	-238.219025	1389.831421	39.942020	-347.839935	1371.429199	-305.872528	-341.503326	1433.575195	-114.840240	-184.296646	1319.221924	-151.825363	-236.375641	1121.751587	176.330582	-311.484039	1073.943237	-415.980957	-199.920258	901.508057	134.664379	-205.480659	884.128143	-395.224854	-190.644974	899.162170	-25.377630	-283.570496	903.090942	-269.024780	-378.346619	932.492249	-40.320591	-409.443848	925.264526	-117.683250	-393.895233	928.878387	-79.001921	-377.239075	1154.171143	-91.150604	-148.420273	1167.955444	-174.723404	-238.825516	633.617798	52.732689	-316.965576	459.876740	-3.575562	-339.611298	260.387451	24.968081	-342.998413	69.213852	-56.570194	-391.534973	55.301895	-103.523682	-218.350052	40.312263	-96.616287	-337.263306	673.035278	-359.335052	-310.628876	466.779327	-317.109222	-373.236755	275.118500	-331.485809	-308.065857	70.061020	-316.654510	-314.496582	51.139687	-253.829239	-192.721191	44.920113	-377.801086
58	0.57000000	-238.427414	1389.990356	39.713333	-347.730042	1371.302246	-306.275482	-341.744690	1433.570801	-115.159309	-184.340622	1319.229370	-152.051849	-236.527130	1121.842773	176.105255	-311.345703	1073.725464	-416.061249	-200.137039	901.626923	134.603020	-205.438469	883.924866	-395.367538	-191.125183	898.995483	-24.969681	-283.487305	903.053589	-269.119995	-378.458527	932.508911	-40.498867	-409.391998	925.217102	-117.871498	-393.925262	928.863007	-79.185183	-377.624359	1154.155640	-91.263939	-148.330139	1167.947144	-174.882309	-238.985870	633.193298	52.674965	-316.992462	459.903259	-3.637962	-339.537323	260.355438	24.885368	-343.001831	69.207512	-56.602886	-391.367157	55.287643	-103.618034	-218.294952	40.369946	-96.715614	-337.295837	672.876160	-359.479675	-310.505096	466.772064	-317.235077	-373.237396	275.092468	-331.590729	-308.055847	70.090874	-316.730804	-314.504242	51.166012	-253.855621	-192.858932	44.887859	-377.790527
59	0.58000000	-238.608215	1390.127686	39.380169	-347.604462	1371.198242	-306.630402	-342.054901	1433.557983	-115.554718	-184.411545	1319.276367	-152.325531	-236.951508	1122.107788	175.894943	-311.180725	1073.665161	-416.542358	-200.294090	901.791931	134.498379	-205.415443	883.787964	-395.334991	-191.301819	899.048706	-25.134054	-283.576660	903.043762	-269.169556	-378.576935	932.488525	-40.676128	-409.507751	925.294006	-118.002022	-394.042343	928.891266	-79.339075	-377.733154	1154.350098	-91.445190	-148.251114	1167.958496	-174.964981	-238.990295	633.536011	52.639904	-316.968872	459.921356	-3.706971	-339.476013	260.357971	24.811100	-342.948120	69.227600	-56.600918	-391.542572	55.356880	-103.432030	-218.327316	40.402794	-96.671738	-337.257812	673.083496	-359.654846	-310.462646	466.798706	-317.274567	-373.246063	275.116455	-331.576874	-308.013885	70.089081	-316.706360	-314.499634	51.162212	-253.835236	-192.860229	44.936546	-377.802521
60	0.59000000	-238.808792	1390.208252	39.067230	-347.509888	1371.046387	-307.017181	-342.144348	1433.651367	-116.031387	-184.344635	1319.262695	-152.460541	-237.226257	1122.224121	175.628799	-311.039093	1073.500244	-416.793945	-200.545601	901.979614	134.345234	-205.239868	883.695435	-395.371780	-191.358017	899.019714	-25.332998	-283.569733	903.047058	-269.220367	-378.759369	932.515320	-40.799015	-409.657959	925.312500	-118.155899	-394.208664	928.913910	-79.477457	-377.495514	1154.300049	-91.997238	-148.288879	1167.902710	-175.167679	-239.135834	633.155518	52.572395	-317.146118	460.010773	-3.745198	-339.432098	260.353516	24.782574	-342.950867	69.288132	-56.605839	-391.613129	55.432442	-103.410347	-218.301987	40.410995	-96.694641	-337.210724	673.044189	-359.720123	-310.405609	466.872986	-317.358673	-373.138214	275.119202	-331.684387	-308.044617	70.095314	-316.743744	-314.486786	51.138123	-253.842972	-192.766266	45.054295	-377.862457
61	0.60000000	-238.942322	1390.313110	38.706135	-347.556793	1370.885254	-307.325958	-342.314362	1433.654297	-116.398155	-184.441345	1319.274780	-152.730637	-237.518005	1122.474854	175.409607	-311.071167	1073.284424	-416.457703	-200.732140	902.095093	134.180191	-205.198021	883.502014	-395.456757	-191.466797	899.013611	-25.400457	-283.656708	902.992188	-269.341614	-378.795227	932.502502	-40.920494	-409.750031	925.324097	-118.235359	-394.272629	928.913300	-79.577927	-377.499603	1154.297241	-92.124191	-148.221863	1167.930786	-175.307190	-239.046844	633.555298	52.463299	-317.092072	460.043121	-3.855938	-339.441284	260.332672	24.684841	-342.979309	69.210968	-56.662315	-391.515472	55.293850	-103.554436	-218.318039	40.408318	-96.734390	-337.114136	673.050415	-359.844360	-310.118469	467.123627	-317.335999	-373.078033	275.043365	-331.827545	-308.025269	70.070518	-316.783539	-314.512421	51.214939	-253.807358	-192.785522	45.031849	-377.768799
62	0.61000000	-239.042175	1390.436523	38.336102	-347.360535	1370.739502	-307.822266	-342.316711	1433.529175	-116.968407	-184.407852	1319.261108	-153.147644	-237.804840	1122.625122	175.216934	-311.018829	1073.050903	-416.521576	-200.776604	902.225159	134.083580	-205.136345	883.323761	-395.504349	-191.173950	899.208313	-26.013716	-283.635315	902.977051	-269.376312	-378.790039	932.505981	-41.189049	-409.832428	925.438354	-118.441017	-394.311234	928.972168	-79.815033	-377.730255	1154.467896	-92.318100	-148.143982	1167.862793	-175.436935	-239.165482	633.290405	52.257084	-317.100037	460.057587	-3.969193	-339.434418	260.374054	24.605818	-342.936829	69.239616	-56.641083	-391.569031	55.336178	-103.422508	-218.285049	40.498878	-96.738052	-337.038605	672.974365	-360.009460	-310.160736	466.979736	-317.547241	-373.107330	275.043243	-331.863678	-308.024109	70.049965	-316.783447	-314.470367	51.148659	-253.839294	-192.818008	44.865063	-377.871704
